<svg width="84" height="85" viewBox="0 0 84 85" fill="none" xmlns="http://www.w3.org/2000/svg">
<path d="M78.6975 33.0575C77.2838 31.58 75.8213 30.0575 75.27 28.7188C74.76 27.4925 74.73 25.46 74.7 23.4912C74.6437 19.8312 74.5837 15.6838 71.7 12.8C68.8162 9.91625 64.6688 9.85625 61.0088 9.8C59.04 9.77 57.0075 9.74 55.7812 9.23C54.4463 8.67875 52.92 7.21625 51.4425 5.8025C48.855 3.31625 45.915 0.5 42 0.5C38.085 0.5 35.1488 3.31625 32.5575 5.8025C31.08 7.21625 29.5575 8.67875 28.2188 9.23C27 9.74 24.96 9.77 22.9912 9.8C19.3312 9.85625 15.1838 9.91625 12.3 12.8C9.41625 15.6838 9.375 19.8312 9.3 23.4912C9.27 25.46 9.24 27.4925 8.73 28.7188C8.17875 30.0537 6.71625 31.58 5.3025 33.0575C2.81625 35.645 0 38.585 0 42.5C0 46.415 2.81625 49.3512 5.3025 51.9425C6.71625 53.42 8.17875 54.9425 8.73 56.2812C9.24 57.5075 9.27 59.54 9.3 61.5088C9.35625 65.1688 9.41625 69.3162 12.3 72.2C15.1838 75.0837 19.3312 75.1437 22.9912 75.2C24.96 75.23 26.9925 75.26 28.2188 75.77C29.5537 76.3213 31.08 77.7838 32.5575 79.1975C35.145 81.6838 38.085 84.5 42 84.5C45.915 84.5 48.8512 81.6838 51.4425 79.1975C52.92 77.7838 54.4425 76.3213 55.7812 75.77C57.0075 75.26 59.04 75.23 61.0088 75.2C64.6688 75.1437 68.8162 75.0837 71.7 72.2C74.5837 69.3162 74.6437 65.1688 74.7 61.5088C74.73 59.54 74.76 57.5075 75.27 56.2812C75.8213 54.9463 77.2838 53.42 78.6975 51.9425C81.1838 49.355 84 46.415 84 42.5C84 38.585 81.1838 35.6488 78.6975 33.0575ZM59.1225 35.6225L38.1225 56.6225C37.8439 56.9014 37.513 57.1227 37.1488 57.2737C36.7846 57.4247 36.3942 57.5024 36 57.5024C35.6058 57.5024 35.2154 57.4247 34.8512 57.2737C34.487 57.1227 34.1561 56.9014 33.8775 56.6225L24.8775 47.6225C24.3146 47.0596 23.9983 46.2961 23.9983 45.5C23.9983 44.7039 24.3146 43.9404 24.8775 43.3775C25.4404 42.8146 26.2039 42.4983 27 42.4983C27.7961 42.4983 28.5596 42.8146 29.1225 43.3775L36 50.2588L54.8775 31.3775C55.1562 31.0988 55.4871 30.8777 55.8513 30.7268C56.2155 30.576 56.6058 30.4983 57 30.4983C57.3942 30.4983 57.7845 30.576 58.1487 30.7268C58.5129 30.8777 58.8438 31.0988 59.1225 31.3775C59.4012 31.6562 59.6223 31.9871 59.7732 32.3513C59.924 32.7155 60.0017 33.1058 60.0017 33.5C60.0017 33.8942 59.924 34.2845 59.7732 34.6487C59.6223 35.0129 59.4012 35.3438 59.1225 35.6225Z" fill="#F9781C"/>
</svg>
