<svg width="24" height="24" viewBox="0 0 24 24" fill="none" xmlns="http://www.w3.org/2000/svg">
<path d="M21.9844 10.7232L17.7563 14.4132L19.0228 19.9069C19.0898 20.1941 19.0707 20.4947 18.9678 20.7711C18.865 21.0475 18.6829 21.2874 18.4444 21.4609C18.2059 21.6344 17.9215 21.7337 17.6269 21.7464C17.3323 21.7592 17.0404 21.6848 16.7878 21.5326L11.9963 18.6263L7.21501 21.5326C6.96242 21.6848 6.67056 21.7592 6.37592 21.7464C6.08128 21.7337 5.79694 21.6344 5.55844 21.4609C5.31994 21.2874 5.13787 21.0475 5.03499 20.7711C4.93211 20.4947 4.91299 20.1941 4.98001 19.9069L6.2447 14.4188L2.01563 10.7232C1.79195 10.5303 1.63021 10.2756 1.55069 9.99113C1.47116 9.70666 1.4774 9.40504 1.56861 9.1241C1.65982 8.84315 1.83195 8.59539 2.06341 8.41188C2.29487 8.22838 2.57535 8.11729 2.8697 8.09256L8.44407 7.60974L10.62 2.41974C10.7336 2.14742 10.9253 1.9148 11.1709 1.75117C11.4164 1.58755 11.7049 1.50024 12 1.50024C12.2951 1.50024 12.5836 1.58755 12.8291 1.75117C13.0747 1.9148 13.2664 2.14742 13.38 2.41974L15.5625 7.60974L21.135 8.09256C21.4293 8.11729 21.7098 8.22838 21.9413 8.41188C22.1728 8.59539 22.3449 8.84315 22.4361 9.1241C22.5273 9.40504 22.5335 9.70666 22.454 9.99113C22.3745 10.2756 22.2127 10.5303 21.9891 10.7232H21.9844Z" fill="#FE7612"/>
</svg>
